<mxfile host="Electron" agent="Mozilla/5.0 (Windows NT 10.0; Win64; x64) AppleWebKit/537.36 (KHTML, like Gecko) draw.io/24.7.17 Chrome/128.0.6613.36 Electron/32.0.1 Safari/537.36" version="24.7.17">
  <diagram name="第 1 页" id="A6sGLvGGa_HNDFlFK8Z2">
    <mxGraphModel dx="1050" dy="717" grid="1" gridSize="10" guides="1" tooltips="1" connect="1" arrows="1" fold="1" page="1" pageScale="1" pageWidth="827" pageHeight="1169" math="0" shadow="0">
      <root>
        <mxCell id="0" />
        <mxCell id="1" parent="0" />
        <mxCell id="WPPxBd2S6GLguTrTDsFD-3" value="" style="rounded=0;whiteSpace=wrap;html=1;" vertex="1" parent="1">
          <mxGeometry x="210" y="160" width="470" height="220" as="geometry" />
        </mxCell>
        <mxCell id="WPPxBd2S6GLguTrTDsFD-4" value="" style="endArrow=none;html=1;rounded=0;exitX=0.5;exitY=1;exitDx=0;exitDy=0;entryX=0.5;entryY=0;entryDx=0;entryDy=0;" edge="1" parent="1" source="WPPxBd2S6GLguTrTDsFD-3" target="WPPxBd2S6GLguTrTDsFD-3">
          <mxGeometry width="50" height="50" relative="1" as="geometry">
            <mxPoint x="400" y="100" as="sourcePoint" />
            <mxPoint x="450" y="50" as="targetPoint" />
          </mxGeometry>
        </mxCell>
        <mxCell id="WPPxBd2S6GLguTrTDsFD-5" value="tokenA" style="text;html=1;align=center;verticalAlign=middle;whiteSpace=wrap;rounded=0;" vertex="1" parent="1">
          <mxGeometry x="290" y="180" width="60" height="30" as="geometry" />
        </mxCell>
        <mxCell id="WPPxBd2S6GLguTrTDsFD-6" value="tokenB" style="text;html=1;align=center;verticalAlign=middle;whiteSpace=wrap;rounded=0;" vertex="1" parent="1">
          <mxGeometry x="530" y="180" width="60" height="30" as="geometry" />
        </mxCell>
        <mxCell id="WPPxBd2S6GLguTrTDsFD-12" style="edgeStyle=orthogonalEdgeStyle;rounded=0;orthogonalLoop=1;jettySize=auto;html=1;entryX=0.5;entryY=0;entryDx=0;entryDy=0;" edge="1" parent="1" source="WPPxBd2S6GLguTrTDsFD-8" target="WPPxBd2S6GLguTrTDsFD-9">
          <mxGeometry relative="1" as="geometry" />
        </mxCell>
        <mxCell id="WPPxBd2S6GLguTrTDsFD-8" value="ERC20" style="text;html=1;align=center;verticalAlign=middle;whiteSpace=wrap;rounded=0;fillColor=#f8cecc;strokeColor=#b85450;" vertex="1" parent="1">
          <mxGeometry x="414" y="440" width="60" height="30" as="geometry" />
        </mxCell>
        <mxCell id="WPPxBd2S6GLguTrTDsFD-9" value="Pair" style="text;html=1;align=center;verticalAlign=middle;whiteSpace=wrap;rounded=0;fillColor=#f8cecc;strokeColor=#b85450;" vertex="1" parent="1">
          <mxGeometry x="414" y="500" width="60" height="30" as="geometry" />
        </mxCell>
        <mxCell id="WPPxBd2S6GLguTrTDsFD-13" style="edgeStyle=orthogonalEdgeStyle;rounded=0;orthogonalLoop=1;jettySize=auto;html=1;entryX=0;entryY=0.5;entryDx=0;entryDy=0;" edge="1" parent="1" source="WPPxBd2S6GLguTrTDsFD-10" target="WPPxBd2S6GLguTrTDsFD-9">
          <mxGeometry relative="1" as="geometry" />
        </mxCell>
        <mxCell id="WPPxBd2S6GLguTrTDsFD-10" value="Factory" style="text;html=1;align=center;verticalAlign=middle;whiteSpace=wrap;rounded=0;fillColor=#f8cecc;strokeColor=#b85450;" vertex="1" parent="1">
          <mxGeometry x="290" y="500" width="60" height="30" as="geometry" />
        </mxCell>
        <mxCell id="WPPxBd2S6GLguTrTDsFD-15" style="edgeStyle=orthogonalEdgeStyle;rounded=0;orthogonalLoop=1;jettySize=auto;html=1;entryX=0.5;entryY=1;entryDx=0;entryDy=0;" edge="1" parent="1" source="WPPxBd2S6GLguTrTDsFD-14" target="WPPxBd2S6GLguTrTDsFD-9">
          <mxGeometry relative="1" as="geometry" />
        </mxCell>
        <mxCell id="WPPxBd2S6GLguTrTDsFD-14" value="Router" style="text;html=1;align=center;verticalAlign=middle;whiteSpace=wrap;rounded=0;fillColor=#f8cecc;strokeColor=#b85450;" vertex="1" parent="1">
          <mxGeometry x="414" y="610" width="60" height="30" as="geometry" />
        </mxCell>
        <mxCell id="WPPxBd2S6GLguTrTDsFD-19" style="edgeStyle=orthogonalEdgeStyle;rounded=0;orthogonalLoop=1;jettySize=auto;html=1;entryX=0.5;entryY=1;entryDx=0;entryDy=0;" edge="1" parent="1" source="WPPxBd2S6GLguTrTDsFD-16" target="WPPxBd2S6GLguTrTDsFD-9">
          <mxGeometry relative="1" as="geometry" />
        </mxCell>
        <mxCell id="WPPxBd2S6GLguTrTDsFD-16" value="library" style="text;html=1;align=center;verticalAlign=middle;whiteSpace=wrap;rounded=0;fillColor=#f8cecc;strokeColor=#b85450;" vertex="1" parent="1">
          <mxGeometry x="480" y="565" width="60" height="30" as="geometry" />
        </mxCell>
        <mxCell id="WPPxBd2S6GLguTrTDsFD-17" style="edgeStyle=orthogonalEdgeStyle;rounded=0;orthogonalLoop=1;jettySize=auto;html=1;entryX=0.629;entryY=1;entryDx=0;entryDy=0;entryPerimeter=0;" edge="1" parent="1" source="WPPxBd2S6GLguTrTDsFD-14" target="WPPxBd2S6GLguTrTDsFD-16">
          <mxGeometry relative="1" as="geometry" />
        </mxCell>
      </root>
    </mxGraphModel>
  </diagram>
</mxfile>
